<?xml version="1.0" standalone="no"?>
<!DOCTYPE svg PUBLIC "-//W3C//DTD SVG 20010904//EN"
 "http://www.w3.org/TR/2001/REC-SVG-20010904/DTD/svg10.dtd">
<svg version="1.0" xmlns="http://www.w3.org/2000/svg"
 width="1080.000000pt" height="1350.000000pt" viewBox="0 0 1080.000000 1350.000000"
 preserveAspectRatio="xMidYMid meet">

<g transform="translate(0.000000,1350.000000) scale(0.100000,-0.100000)"
fill="#000000" stroke="none">
<path d="M7234 8231 c-52 -32 -68 -106 -38 -181 35 -87 165 -98 214 -18 36 59
16 168 -35 202 -33 22 -103 20 -141 -3z m99 -32 c12 -7 25 -17 29 -23 12 -18
9 -111 -4 -129 -22 -27 -61 -31 -91 -7 -23 18 -27 29 -27 74 0 52 12 79 40 89
23 8 30 8 53 -4z"/>
<path d="M7496 8168 c-9 -40 -23 -98 -30 -130 -13 -55 -13 -56 8 -62 33 -9 33
-9 40 37 10 63 19 74 47 55 16 -10 26 -31 34 -69 8 -46 14 -55 34 -57 23 -4
23 -3 16 55 -4 32 -12 64 -17 71 -8 8 -6 12 4 12 43 0 64 82 29 114 -17 15
-107 46 -137 46 -7 0 -19 -33 -28 -72z m103 11 c27 -9 32 -16 29 -38 -2 -21
-9 -27 -33 -29 -42 -3 -53 8 -48 46 6 36 7 36 52 21z"/>
<path d="M7023 8192 c-40 -15 -73 -31 -73 -37 0 -5 19 -62 43 -125 36 -98 46
-114 62 -112 29 5 30 8 14 54 -19 60 -19 59 26 75 49 17 57 24 45 43 -8 12
-15 12 -59 -2 -45 -14 -50 -14 -54 1 -3 9 -8 23 -12 33 -4 11 0 18 16 23 68
22 87 35 82 55 -6 24 -1 24 -90 -8z"/>
<path d="M7800 8005 c-38 -57 -70 -106 -70 -108 0 -2 32 -25 71 -51 65 -43 73
-46 87 -32 9 8 14 17 11 19 -2 2 -25 18 -51 36 -27 18 -48 35 -48 39 0 4 9 18
19 32 l19 24 42 -29 c37 -26 42 -27 56 -13 14 14 12 19 -30 47 -45 31 -46 32
-30 56 9 14 18 25 21 25 2 0 24 -13 48 -30 24 -16 48 -30 53 -30 9 0 26 30 20
35 -41 30 -130 85 -137 85 -6 0 -42 -47 -81 -105z"/>
<path d="M7996 7864 c-63 -106 -67 -118 -55 -140 7 -13 19 -24 28 -24 28 0
252 93 248 104 -10 31 -37 29 -123 -7 -48 -20 -90 -35 -92 -32 -3 2 19 41 48
86 47 74 50 85 39 106 -7 12 -15 23 -18 23 -3 0 -37 -52 -75 -116z"/>
<path d="M8140 7675 c-65 -32 -114 -61 -112 -68 7 -35 68 -147 79 -147 25 0
24 28 -2 79 l-25 51 26 10 c15 6 30 13 35 16 4 2 17 -16 28 -41 14 -32 26 -45
40 -45 26 0 26 11 0 62 -20 40 -21 42 -3 55 29 21 39 16 64 -37 24 -51 28 -54
53 -44 13 5 9 19 -21 84 -20 44 -39 79 -42 79 -3 0 -57 -24 -120 -54z"/>
<path d="M2553 7522 c-14 -9 -143 -332 -309 -775 -108 -289 -132 -362 -124
-378 10 -17 22 -19 115 -19 98 0 105 1 123 24 10 14 61 138 112 276 61 162 96
246 101 237 5 -8 33 -85 64 -173 104 -295 118 -329 138 -346 15 -15 38 -18
118 -18 115 0 125 7 104 74 -77 248 -400 1092 -421 1100 -6 2 -16 1 -21 -2z"/>
<path d="M3037 7524 c-9 -9 -9 -736 -1 -758 5 -13 24 -16 108 -16 55 0 107 4
114 8 9 7 12 91 10 388 l-3 379 -111 3 c-60 1 -113 -1 -117 -4z"/>
<path d="M3702 7518 c-17 -17 -17 -879 0 -896 13 -13 183 -17 212 -6 14 5 16
34 16 212 0 175 2 204 14 192 7 -8 104 -148 214 -310 110 -162 214 -311 230
-330 30 -35 30 -35 126 -38 53 -2 108 -1 121 2 l25 6 0 578 c0 436 -3 581 -12
590 -16 16 -210 16 -226 0 -9 -9 -12 -103 -12 -362 0 -351 0 -351 -20 -326
-11 14 -72 104 -137 200 -64 96 -162 240 -218 320 -56 80 -104 154 -108 163
-5 14 -22 17 -110 17 -67 0 -107 -4 -115 -12z"/>
<path d="M5101 7514 c-243 -65 -421 -314 -421 -589 0 -275 172 -517 419 -589
67 -20 198 -21 267 -2 138 37 277 150 347 283 183 349 22 784 -332 893 -76 24
-200 26 -280 4z m257 -250 c66 -33 135 -109 164 -182 18 -47 22 -76 22 -162 0
-92 -3 -112 -26 -162 -34 -73 -96 -140 -161 -173 -65 -32 -163 -35 -230 -6
-172 74 -252 304 -177 505 28 73 117 166 181 189 72 25 166 22 227 -9z"/>
<path d="M6240 7514 c-182 -49 -343 -223 -397 -427 -22 -84 -22 -243 1 -326
57 -210 204 -368 395 -425 77 -23 213 -21 293 4 177 55 333 227 383 425 8 33
15 103 15 160 0 185 -55 322 -179 446 -113 113 -223 159 -376 158 -44 0 -105
-7 -135 -15z m255 -248 c138 -65 221 -240 194 -408 -38 -234 -247 -362 -437
-267 -211 105 -254 431 -81 609 86 89 219 116 324 66z"/>
<path d="M7130 7521 c-80 -3 -151 -10 -157 -14 -9 -6 -13 -37 -13 -96 0 -59 4
-92 13 -98 6 -6 107 -14 222 -17 150 -5 219 -12 240 -22 84 -39 87 -177 5
-219 -23 -12 -73 -15 -255 -15 l-225 0 0 -339 c0 -231 3 -342 11 -346 21 -13
222 -7 230 7 5 7 9 115 9 239 l0 227 46 -12 46 -12 90 -204 c50 -113 100 -216
113 -229 19 -20 36 -25 98 -29 94 -6 125 2 132 31 4 15 -26 92 -90 236 -52
118 -95 220 -95 226 0 7 10 16 23 22 46 21 123 102 152 160 27 52 30 67 30
153 0 84 -3 101 -28 148 -39 75 -106 138 -185 175 -60 28 -77 32 -167 33 -55
1 -165 -2 -245 -5z"/>
<path d="M8198 7462 c-96 -15 -107 -22 -89 -51 7 -11 22 -12 91 -2 45 7 83 11
85 9 2 -2 -32 -32 -75 -68 -63 -52 -79 -71 -79 -92 -1 -34 -4 -33 152 -11 115
16 127 22 108 52 -8 13 -21 13 -87 3 -42 -7 -79 -11 -80 -9 -2 2 30 31 71 65
62 52 75 68 75 92 0 28 -2 30 -37 29 -21 -1 -82 -9 -135 -17z"/>
<path d="M8348 7158 c-3 -31 -5 -33 -43 -32 -22 0 -73 4 -112 8 l-73 9 0 -26
c0 -24 4 -25 88 -37 48 -6 94 -12 102 -13 10 -2 16 -16 18 -45 3 -33 7 -42 22
-42 15 0 20 10 25 48 4 26 10 71 14 99 9 57 7 63 -20 63 -13 0 -19 -9 -21 -32z"/>
<path d="M8101 6989 c-26 -25 -51 -78 -51 -109 0 -32 44 -70 81 -70 25 0 41
10 73 45 23 25 50 45 59 45 26 0 21 -47 -8 -76 -21 -21 -23 -28 -13 -44 16
-26 42 -11 68 40 32 64 22 112 -27 131 -36 13 -71 -3 -103 -46 -14 -19 -31
-37 -39 -40 -18 -7 -41 13 -41 37 0 19 36 62 59 69 18 6 2 39 -18 39 -10 0
-28 -10 -40 -21z"/>
<path d="M3034 6547 c-3 -8 -4 -54 -2 -103 l3 -89 319 -3 c249 -2 321 1 328
10 9 15 11 159 2 182 -5 14 -43 16 -325 16 -257 0 -321 -3 -325 -13z"/>
<path d="M6344 6066 c-76 -33 -52 -116 42 -146 41 -13 49 -19 49 -40 0 -34
-47 -40 -85 -11 -27 19 -28 19 -44 2 -15 -16 -15 -19 3 -35 44 -40 133 -42
167 -5 21 24 24 80 5 103 -8 9 -37 23 -66 32 -50 14 -72 34 -59 55 7 13 61 11
86 -2 16 -9 23 -8 29 2 15 25 10 37 -22 48 -41 14 -67 13 -105 -3z"/>
<path d="M6565 5953 c-22 -65 -41 -124 -43 -130 -2 -8 7 -13 23 -13 20 0 28 7
36 30 10 28 14 30 60 30 47 0 51 -2 60 -30 9 -24 17 -30 39 -30 l28 0 -22 63
c-13 34 -33 92 -45 130 -23 67 -23 67 -60 67 l-37 0 -39 -117z m93 18 c17 -55
15 -61 -18 -61 -16 0 -30 5 -30 11 0 21 23 89 30 89 4 0 12 -17 18 -39z"/>
<path d="M6810 5940 l0 -130 70 0 c85 0 121 16 144 64 21 44 20 92 -2 136 -23
47 -53 60 -139 60 l-73 0 0 -130z m126 84 c26 -7 44 -43 44 -90 0 -48 -37 -84
-85 -84 l-35 0 0 90 0 90 28 0 c15 0 37 -3 48 -6z"/>
<path d="M7112 5948 c-23 -68 -42 -126 -42 -130 0 -5 11 -8 24 -8 18 0 27 8
35 31 10 29 12 30 63 27 46 -3 53 -6 58 -28 4 -18 13 -26 33 -28 15 -2 27 0
27 5 0 4 -19 63 -42 131 l-43 122 -36 0 -35 0 -42 -122z m96 23 c17 -55 15
-61 -18 -61 -16 0 -30 5 -30 11 0 21 23 89 30 89 4 0 12 -17 18 -39z"/>
<path d="M7373 5947 c-24 -67 -43 -126 -43 -130 0 -5 12 -7 27 -5 20 2 29 10
33 28 5 22 12 25 58 28 51 3 53 2 63 -27 9 -24 17 -31 38 -31 l27 0 -44 130
-44 130 -37 0 -36 0 -42 -123z m95 24 c17 -55 15 -61 -18 -61 -16 0 -30 5 -30
11 0 21 23 89 30 89 4 0 12 -17 18 -39z"/>
</g>
</svg>
